<?xml version="1.0" encoding="UTF-8" standalone="no"?>
<svg
   width="1851"
   height="696"
   viewBox="0 0 1851 696"
   version="1.1"
   xml:space="preserve"
   style="clip-rule:evenodd;fill-rule:evenodd;stroke-linecap:round;stroke-linejoin:round;stroke-miterlimit:1.5"
   id="svg44"
   sodipodi:docname="fango_logo.svg"
   inkscape:version="1.1.2 (0a00cf5339, 2022-02-04)"
   xmlns:inkscape="http://www.inkscape.org/namespaces/inkscape"
   xmlns:sodipodi="http://sodipodi.sourceforge.net/DTD/sodipodi-0.dtd"
   xmlns="http://www.w3.org/2000/svg"
   xmlns:svg="http://www.w3.org/2000/svg"><defs
   id="defs48" /><sodipodi:namedview
   id="namedview46"
   pagecolor="#ffffff"
   bordercolor="#666666"
   borderopacity="1.0"
   inkscape:pageshadow="2"
   inkscape:pageopacity="0.0"
   inkscape:pagecheckerboard="0"
   showgrid="false"
   inkscape:zoom="0.42654639"
   inkscape:cx="10.549849"
   inkscape:cy="-174.65861"
   inkscape:window-width="2560"
   inkscape:window-height="1489"
   inkscape:window-x="0"
   inkscape:window-y="0"
   inkscape:window-maximized="1"
   inkscape:current-layer="svg44" />
    <g
   transform="matrix(15.369787,0,0,15.369787,264.81274,-394.25206)"
   id="g8">
        <g
   id="path8"
   transform="matrix(0.151575,0,0,0.151575,-16.1512,23.6054)">
            <path
   d="m 620.38,235.668 c -58.111,42.833 -142.341,65.686 -214.86,65.686 -101.685,0 -193.227,-37.609 -262.483,-100.161 -5.441,-4.919 -0.565,-11.622 5.964,-7.792 74.74,43.486 167.153,69.647 262.613,69.647 64.38,0 135.202,-13.32 200.322,-40.961 9.837,-4.179 18.064,6.442 8.444,13.581"
   style="fill:#ff9900"
   id="path2" />
        </g>
        <g
   id="path10"
   transform="matrix(0.151575,0,0,0.151575,-16.1512,23.6054)">
            <path
   d="m 644.539,208.027 c -7.4,-9.489 -49.101,-4.483 -67.819,-2.263 -5.702,0.696 -6.572,-4.266 -1.436,-7.836 33.213,-23.375 87.712,-16.628 94.067,-8.793 6.355,7.879 -1.654,62.508 -32.865,88.583 -4.788,4.004 -9.359,1.871 -7.226,-3.439 7.009,-17.499 22.723,-56.719 15.279,-66.252"
   style="fill:#ff9900"
   id="path5" />
        </g>
    </g>
    <g
   transform="matrix(1.5962429,0,0,1.5962429,661.26256,-61.665911)"
   id="g18">
        <g
   transform="matrix(11.5579,0,0,11.5579,-240.73,-207.822)"
   id="g12">
            <circle
   cx="67.085999"
   cy="32.178001"
   r="7.283"
   style="fill:none;stroke:#000000;stroke-width:1.64px"
   id="circle10" />
        </g>
        <g
   transform="matrix(9.62875,0,0,9.62875,-29.4757,-292.657)"
   id="g16">
            <path
   d="M 50.689,57.663 66.535,36.441"
   style="fill:none;stroke:#000000;stroke-width:1.64px"
   id="path14" />
        </g>
    </g>
    <g
   transform="matrix(3.4213562,0,0,3.4213562,433.38938,-485.55504)"
   id="g22">
        <path
   d="m 159.282,239.199 c -5.01,0.88 -10.107,1.143 -15.381,1.846 l -16.084,-47.109 v 49.131 c -5.01,0.527 -9.58,1.23 -14.326,1.933 v -90 h 13.36 l 18.281,51.065 V 155 h 14.15 z"
   style="fill:#d81f26"
   id="path20" />
    </g>
    <g
   transform="matrix(0.55667109,0,0,0.55667109,1039.7289,44.051635)"
   id="g35">
        <g
   id="G">
            <g
   id="g32">
                <path
   d="m 533.5,278.4 c 0,-18.5 -1.5,-37.1 -4.7,-55.3 H 272.1 v 104.8 h 147 c -6.1,33.8 -25.7,63.7 -54.4,82.7 v 68 h 87.7 c 51.5,-47.4 81.1,-117.4 81.1,-200.2 z"
   style="fill:#4285f4;fill-rule:nonzero"
   id="path24" />
                <path
   d="m 272.1,544.3 c 73.4,0 135.3,-24.1 180.4,-65.7 l -87.7,-68 c -24.4,16.6 -55.9,26 -92.6,26 -71,0 -131.2,-47.9 -152.8,-112.3 H 28.9 v 70.1 c 46.2,91.9 140.3,149.9 243.2,149.9 z"
   style="fill:#34a853;fill-rule:nonzero"
   id="path26" />
                <path
   d="m 119.3,324.3 c -11.4,-33.8 -11.4,-70.4 0,-104.2 V 150 H 28.9 c -38.6,76.9 -38.6,167.5 0,244.4 z"
   style="fill:#fbbc04;fill-rule:nonzero"
   id="path28" />
                <path
   d="m 272.1,107.7 c 38.8,-0.6 76.3,14 104.4,40.8 L 454.2,70.8 C 405,24.6 339.7,-0.8 272.1,0 169.2,0 75.1,58 28.9,150 l 90.4,70.1 c 21.5,-64.5 81.8,-112.4 152.8,-112.4 z"
   style="fill:#ea4335;fill-rule:nonzero"
   id="path30" />
            </g>
        </g>
    </g>
    <g
   id="A"
   transform="matrix(1.7756902,0,0,1.7756902,503.42795,44.835438)">
        <path
   d="m 91.194,98.812 c 0,12.058 0.305,22.113 -5.789,32.821 -4.919,8.706 -12.711,14.06 -21.417,14.06 -11.883,0 -18.805,-9.054 -18.805,-22.418 0,-26.378 23.637,-31.167 46.011,-31.167 v 6.704 m 31.211,75.436 c -2.046,1.828 -5.006,1.959 -7.313,0.74 C 104.819,166.457 102.99,162.495 97.332,154.355 80.355,171.68 68.341,176.86 46.315,176.86 20.285,176.86 0,160.798 0,128.63 0,103.513 13.625,86.406 32.995,78.048 49.798,70.648 73.26,69.343 91.194,67.297 v -4.005 c 0,-7.357 0.566,-16.062 -3.744,-22.418 -3.787,-5.702 -11.012,-8.053 -17.368,-8.053 -11.796,0 -22.33,6.051 -24.899,18.587 -0.522,2.786 -2.568,5.529 -5.354,5.659 L 9.794,53.846 C 7.269,53.28 4.484,51.234 5.18,47.36 12.101,10.97 44.966,0 74.392,0 c 15.061,0 34.736,4.005 46.62,15.41 15.061,14.06 13.624,32.821 13.624,53.236 v 48.231 c 0,14.495 6.007,20.85 11.666,28.685 2.003,2.786 2.438,6.138 -0.087,8.227 -6.312,5.268 -17.542,15.062 -23.723,20.546 l -0.087,-0.087"
   id="path37" />
    </g>
    <g
   transform="matrix(0.13961788,0,0,0.13961788,269.44812,37.59107)"
   id="g42">
        <path
   d="M 842.506,2499.7 V 1359.6 H 1225.2 l 57.29,-444.32 H 842.506 V 631.596 c 0,-128.637 35.726,-216.311 220.204,-216.311 L 1298,415.177 V 17.785 C 1257.29,12.39 1117.63,0.296 955.151,0.296 615.923,0.296 383.68,207.35 383.68,587.615 V 915.292 H 0 v 444.318 h 383.668 v 1140.11 z"
   style="fill:#3c5a9a;fill-rule:nonzero"
   id="path40" />
    </g>
</svg>
